<svg width="478" height="535" viewBox="0 0 478 535" fill="none" xmlns="http://www.w3.org/2000/svg">
<g opacity="0.1" clip-path="url(#clip0_714_7071)">
<path d="M478 207.672V155.719C478 139.008 469.1 123.559 454.62 115.213L269.22 8.10515C250.52 -2.70172 227.48 -2.70172 208.78 8.10515L28.24 112.411C10.76 122.498 0 141.15 0 161.343V377.02C0 394.251 9.18 410.181 24.1 418.786L213.38 528.136C229.22 537.281 248.76 537.281 264.6 528.136L455.24 418.006C469.32 409.88 477.98 394.851 477.98 378.581V325.907H408.44V364.692L238.98 462.594L69.52 364.692V168.907L238.98 71.0051L408.44 168.907V207.692H477.98L478 207.672Z" fill="#0071BC"/>
<path d="M248.48 260.085C248.48 250.599 253.52 241.854 261.72 237.111L299.72 215.117L351.94 184.878L352.88 184.337L351.94 183.797L311.12 160.222L299.7 166.826L248.44 196.505L222.76 211.374C210.06 218.719 202.24 232.288 202.24 246.977V343.698L177 329.029L154.36 315.781V228.905C154.36 221.201 158.46 214.056 165.14 210.194L202.24 184.898L248.44 158.161L278.26 140.91L248.44 124.039L238.96 118.555L202.26 139.769L151 169.388L129.36 181.896C117.78 188.58 110.64 200.948 110.64 214.336V316.861C110.64 319.363 110.86 321.825 111.3 324.226C113.44 336.214 120.76 346.82 131.52 353.024L133.56 354.205L151 364.292L192.52 388.287L202.24 393.91L214.9 401.235C225.18 407.179 237.12 409 248.42 406.739C253.46 405.718 258.38 403.897 262.96 401.235L282.12 390.168L299.68 380.022L341.16 356.066C347.82 352.224 351.9 345.119 351.9 337.434V230.807C351.9 229.486 350.46 228.645 349.32 229.306L319.46 246.597C307.22 253.681 299.68 266.75 299.68 280.899V326.007L248.42 355.786V260.145L248.48 260.085Z" fill="#8CC63F"/>
</g>
<defs>
<clipPath id="clip0_714_7071">
<rect width="478" height="535" fill="white"/>
</clipPath>
</defs>
</svg>
